<svg width="14" height="15" viewBox="0 0 14 15" fill="none" xmlns="http://www.w3.org/2000/svg">
<path d="M13.344 4.24998H13.125V2.93798C13.125 1.71298 10.413 0.750977 7 0.750977C3.587 0.750977 0.875 1.71298 0.875 2.93798V4.24998H0.656C0.482018 4.24998 0.315162 4.31909 0.192138 4.44211C0.0691141 4.56514 0 4.73199 0 4.90598L0 7.09298C0 7.26696 0.0691141 7.43381 0.192138 7.55684C0.315162 7.67986 0.482018 7.74898 0.656 7.74898H0.875V12.125C0.875 12.357 0.967187 12.5796 1.13128 12.7437C1.29538 12.9078 1.51794 13 1.75 13V13.875C1.75 14.107 1.84219 14.3296 2.00628 14.4937C2.17038 14.6578 2.39294 14.75 2.625 14.75H3.5C3.73206 14.75 3.95462 14.6578 4.11872 14.4937C4.28281 14.3296 4.375 14.107 4.375 13.875V13H9.625V13.875C9.625 14.107 9.71719 14.3296 9.88128 14.4937C10.0454 14.6578 10.2679 14.75 10.5 14.75H11.375C11.6071 14.75 11.8296 14.6578 11.9937 14.4937C12.1578 14.3296 12.25 14.107 12.25 13.875V13H12.425C12.5173 13.0013 12.6089 12.9841 12.6945 12.9494C12.78 12.9147 12.8577 12.8632 12.923 12.798C12.9882 12.7327 13.0398 12.655 13.0745 12.5694C13.1092 12.4839 13.1263 12.3923 13.125 12.3V7.74998H13.344C13.4301 7.74998 13.5155 7.73301 13.595 7.70004C13.6746 7.66707 13.7469 7.61875 13.8079 7.55784C13.8688 7.49692 13.9171 7.42461 13.9501 7.34502C13.983 7.26543 14 7.18012 14 7.09398V4.90598C14 4.81983 13.983 4.73453 13.9501 4.65494C13.9171 4.57535 13.8688 4.50303 13.8079 4.44211C13.7469 4.3812 13.6746 4.33288 13.595 4.29991C13.5155 4.26694 13.4301 4.24998 13.344 4.24998ZM3.062 11.688C2.82994 11.688 2.60738 11.5958 2.44328 11.4317C2.27919 11.2676 2.187 11.045 2.187 10.813C2.187 10.5809 2.27919 10.3584 2.44328 10.1943C2.60738 10.0302 2.82994 9.93798 3.062 9.93798C3.29406 9.93798 3.51662 10.0302 3.68072 10.1943C3.84481 10.3584 3.937 10.5809 3.937 10.813C3.937 11.045 3.84481 11.2676 3.68072 11.4317C3.51662 11.5958 3.29406 11.688 3.062 11.688ZM3.5 8.62498C3.26794 8.62498 3.04538 8.53279 2.88128 8.36869C2.71719 8.2046 2.625 7.98204 2.625 7.74998V4.24998C2.625 4.01791 2.71719 3.79535 2.88128 3.63126C3.04538 3.46716 3.26794 3.37498 3.5 3.37498H10.5C10.7321 3.37498 10.9546 3.46716 11.1187 3.63126C11.2828 3.79535 11.375 4.01791 11.375 4.24998V7.74998C11.375 7.98204 11.2828 8.2046 11.1187 8.36869C10.9546 8.53279 10.7321 8.62498 10.5 8.62498H3.5ZM10.937 11.687C10.7049 11.687 10.4824 11.5948 10.3183 11.4307C10.1542 11.2666 10.062 11.044 10.062 10.812C10.062 10.5799 10.1542 10.3574 10.3183 10.1933C10.4824 10.0292 10.7049 9.93698 10.937 9.93698C11.1691 9.93698 11.3916 10.0292 11.5557 10.1933C11.7198 10.3574 11.812 10.5799 11.812 10.812C11.8121 10.927 11.7896 11.0409 11.7457 11.1471C11.7018 11.2534 11.6373 11.35 11.5561 11.4313C11.4748 11.5127 11.3783 11.5772 11.2721 11.6213C11.1659 11.6653 11.052 11.687 10.937 11.687Z" fill="#383838"/>
</svg>
